<?xml version="1.0" encoding="UTF-8"?>
<!DOCTYPE svg PUBLIC "-//W3C//DTD SVG 1.1//EN" "http://www.w3.org/Graphics/SVG/1.1/DTD/svg11.dtd">
<!-- Creator: CorelDRAW 2021 (64-Bit) -->
<svg xmlns="http://www.w3.org/2000/svg" xml:space="preserve" width="116.185mm" height="135.285mm" version="1.1" style="shape-rendering:geometricPrecision; text-rendering:geometricPrecision; image-rendering:optimizeQuality; fill-rule:evenodd; clip-rule:evenodd"
viewBox="0 0 2609.04 3037.95"
 xmlns:xlink="http://www.w3.org/1999/xlink"
 xmlns:xodm="http://www.corel.com/coreldraw/odm/2003">
 <defs>
  <style type="text/css">
   <![CDATA[
    .fil9 {fill:white}
    .fil18 {fill:#263138;fill-rule:nonzero}
    .fil3 {fill:#3F7BFF;fill-rule:nonzero}
    .fil0 {fill:#E6E6E6;fill-rule:nonzero}
    .fil21 {fill:#FF5652;fill-rule:nonzero}
    .fil15 {fill:#FF8A7B;fill-rule:nonzero}
    .fil5 {fill:white;fill-rule:nonzero}
    .fil10 {fill:white;fill-rule:nonzero}
    .fil1 {fill:#3F7BFF;fill-rule:nonzero;fill-opacity:0.058824}
    .fil19 {fill:black;fill-rule:nonzero;fill-opacity:0.200000}
    .fil14 {fill:#3F7BFF;fill-rule:nonzero;fill-opacity:0.301961}
    .fil13 {fill:white;fill-rule:nonzero;fill-opacity:0.701961}
    .fil12 {fill:url(#id0)}
    .fil8 {fill:url(#id1)}
    .fil16 {fill:url(#id2)}
    .fil11 {fill:url(#id3)}
    .fil6 {fill:url(#id4)}
    .fil22 {fill:url(#id5)}
    .fil4 {fill:url(#id6)}
    .fil23 {fill:url(#id7)}
    .fil17 {fill:url(#id8)}
    .fil2 {fill:url(#id9);fill-opacity:0.058824}
    .fil7 {fill:url(#id10);fill-opacity:0.101961}
    .fil20 {fill:url(#id11);fill-opacity:0.200000}
   ]]>
  </style>
  <linearGradient id="id0" gradientUnits="userSpaceOnUse" x1="1106.31" y1="421.73" x2="1324.5" y2="62.55">
   <stop offset="0" style="stop-opacity:1; stop-color:#F5AB17"/>
   <stop offset="1" style="stop-opacity:1; stop-color:#FF0066"/>
  </linearGradient>
  <linearGradient id="id1" gradientUnits="userSpaceOnUse" xlink:href="#id0" x1="517.71" y1="716.75" x2="735.24" y2="379.01">
  </linearGradient>
  <linearGradient id="id2" gradientUnits="userSpaceOnUse" xlink:href="#id0" x1="1322.06" y1="1430.46" x2="1495.71" y2="1229.73">
  </linearGradient>
  <linearGradient id="id3" gradientUnits="userSpaceOnUse" xlink:href="#id0" x1="701.27" y1="534.51" x2="715.73" y2="482.71">
  </linearGradient>
  <linearGradient id="id4" gradientUnits="userSpaceOnUse" xlink:href="#id0" x1="496.9" y1="999.74" x2="662.94" y2="607.63">
  </linearGradient>
  <linearGradient id="id5" gradientUnits="userSpaceOnUse" xlink:href="#id0" x1="1363.62" y1="2714.14" x2="1790.14" y2="1924.53">
  </linearGradient>
  <linearGradient id="id6" gradientUnits="userSpaceOnUse" xlink:href="#id0" x1="2010.29" y1="1111.41" x2="2153.58" y2="713.41">
  </linearGradient>
  <linearGradient id="id7" gradientUnits="userSpaceOnUse" xlink:href="#id0" x1="1006.02" y1="1413.49" x2="1178.45" y2="1222.95">
  </linearGradient>
  <linearGradient id="id8" gradientUnits="userSpaceOnUse" xlink:href="#id0" x1="1020.92" y1="1719.93" x2="1399.66" y2="1299.96">
  </linearGradient>
  <linearGradient id="id9" gradientUnits="userSpaceOnUse" xlink:href="#id0" x1="1146.7" y1="2242.61" x2="1817.36" y2="695.05">
  </linearGradient>
  <linearGradient id="id10" gradientUnits="userSpaceOnUse" xlink:href="#id0" x1="484.66" y1="878.01" x2="581.34" y2="589.76">
  </linearGradient>
  <linearGradient id="id11" gradientUnits="userSpaceOnUse" xlink:href="#id0" x1="1493.26" y1="2040.41" x2="1753.23" y2="1537.39">
  </linearGradient>
 </defs>
 <g id="Layer_x0020_1">
  <metadata id="CorelCorpID_0Corel-Layer"/>
  <path class="fil0" d="M2164.17 2974.76c0,34.9 -484.46,63.19 -1082.09,63.19 -597.62,0 -1082.09,-28.29 -1082.09,-63.19 0,-34.9 484.47,-63.2 1082.09,-63.2 597.62,0 1082.09,28.3 1082.09,63.2z"/>
  <g id="_1824830771856">
   <g>
    <path class="fil1" d="M1661.53 563.64c-214.83,11.6 -360.43,176.34 -593.8,147.99 -917.58,-238.37 -1325.02,416.42 -858.3,954.85 461.28,524.69 1807.41,899.2 2247.4,425.58 420.74,-439.91 -91.45,-1519.99 -795.3,-1528.42z"/>
    <path class="fil2" d="M1661.53 563.64c-214.83,11.6 -360.43,176.34 -593.8,147.99 -917.58,-238.37 -1325.02,416.42 -858.3,954.85 461.28,524.69 1807.41,899.2 2247.4,425.58 420.74,-439.91 -91.45,-1519.99 -795.3,-1528.42z"/>
   </g>
   <g>
    <path class="fil3" d="M2432.85 775c-0.93,-24.27 -5.2,-43.25 -12.68,-56.4 -7.32,-12.87 -26.77,-47.05 -269.62,-47.05l0 -7.79c247.37,0 266.97,34.44 276.39,50.99 8.11,14.25 12.71,34.42 13.69,59.94l-7.78 0.3z"/>
    <path class="fil3" d="M2424.03 909.85l-7.59 -1.77c6.11,-26.33 10.61,-51.25 13.37,-74.07l7.74 0.94c-2.8,23.09 -7.35,48.29 -13.53,74.89z"/>
    <path class="fil4" d="M2403.24 728.23c-32.61,-57.35 -492.12,-37.42 -577.31,-12.94 -115.3,33.14 -167.11,330.82 -175.9,402.63 0,0 67.65,-71.08 127.36,-89.01 28.44,9.94 341.76,64.71 400.18,80.3 66.62,17.78 137.49,-0.22 170.05,-58.15 32.56,-57.93 89.68,-262.95 55.62,-322.83z"/>
    <path class="fil5" d="M2300.22 811.13c-0.91,0 -1.84,-0.06 -2.77,-0.2 -217.36,-30.98 -468.89,-8.97 -471.41,-8.74 -10.72,1.06 -20.18,-6.95 -21.14,-17.66 -0.96,-10.71 6.94,-20.17 17.65,-21.14 2.56,-0.21 258.61,-22.65 480.4,8.98 10.65,1.51 18.05,11.38 16.53,22.03 -1.39,9.71 -9.72,16.72 -19.26,16.72z"/>
    <path class="fil5" d="M2268.48 915.37c-1.12,0 -2.25,-0.09 -3.39,-0.3 -249.73,-43.85 -472.93,-31.05 -475.15,-30.93 -10.74,0.87 -19.96,-7.53 -20.61,-18.27 -0.65,-10.73 7.52,-19.96 18.26,-20.61 2.27,-0.15 229.8,-13.23 484.23,31.45 10.59,1.86 17.68,11.95 15.82,22.55 -1.66,9.45 -9.88,16.11 -19.16,16.11z"/>
    <path class="fil5" d="M2139.99 1022.13c-1.77,0 -3.57,-0.24 -5.36,-0.75 -191.81,-54.76 -364.31,-44.53 -366.03,-44.42 -10.74,0.67 -19.99,-7.46 -20.68,-18.19 -0.69,-10.73 7.45,-19.99 18.18,-20.68 7.29,-0.46 180.64,-10.85 379.22,45.84 10.34,2.96 16.33,13.73 13.38,24.08 -2.44,8.55 -10.24,14.13 -18.71,14.13z"/>
   </g>
   <path class="fil6" d="M207.22 656.91c24.99,-61.06 349.28,-91.16 436.9,-77.8 118.6,18.08 210.97,327.7 225.94,413.13 0,0 -76.21,-61.82 -137.72,-71.94 -26.94,13.51 -193.42,72.45 -252.45,85.51 -67.33,14.89 -136.38,17.41 -176.1,-35.86 -39.72,-53.28 -122.66,-249.29 -96.56,-313.04z"/>
   <path class="fil7" d="M644.11 579.11c-87.63,-13.4 -411.92,16.75 -436.85,77.82 -4.6,11.14 -5.76,26.33 -4.44,44.09 62.63,98.54 157.82,174.25 267.5,179.24 133.13,4.36 265.4,-61.46 316.73,-139.36 -38.64,-82.33 -87.87,-153.38 -142.94,-161.79z"/>
   <path class="fil8" d="M817.34 486.72c29.11,121.83 -46.05,244.2 -167.89,273.32 -121.83,29.11 -244.2,-46.05 -273.31,-167.89 -29.11,-121.83 46.05,-244.2 167.89,-273.31 121.83,-29.11 244.2,46.05 273.31,167.89z"/>
   <path class="fil9" d="M585.91 468.98c2.74,5.49 -5.49,14.28 -18.4,19.62 -12.91,5.34 -25.6,5.21 -28.35,-0.28 -2.74,-5.49 5.49,-14.28 18.4,-19.62 12.91,-5.34 25.6,-5.21 28.35,0.28z"/>
   <path class="fil10" d="M525.51 413.37c14.44,-5.76 30.1,-8.4 45.77,-8.55 7.86,-0.18 15.71,0.58 23.55,1.59 7.91,1.25 15.36,2.82 23.48,5.78 4.01,1.46 6.07,5.89 4.61,9.9 -1.04,2.86 -3.59,4.73 -6.42,5.04l-0.26 0.03c-6.07,0.65 -12.88,1.97 -19.3,3.32 -6.5,1.45 -12.87,3.38 -19.24,5.43 -6.34,2.15 -12.54,4.69 -18.64,7.67 -6.21,2.87 -11.91,6.61 -17.97,10.47 3.69,-6.08 8.39,-11.75 13.87,-16.54 5.52,-4.7 11.49,-9.09 18,-12.4 6.41,-3.53 13.22,-6.27 20.16,-8.54 7.03,-2.31 13.9,-3.91 21.69,-4.87l-2.07 14.96c-6.2,-2.12 -13.57,-4.02 -20.59,-5.51 -7.11,-1.65 -14.34,-2.83 -21.64,-3.87 -7.3,-0.94 -14.69,-1.9 -22.16,-2.38 -7.5,-0.79 -15.04,-0.87 -22.83,-1.53z"/>
   <path class="fil10" d="M738.43 367.93c-4.16,2.28 -8.13,4.07 -11.62,6.65 -3.59,2.31 -6.77,5.02 -9.69,7.88 -2.87,2.91 -5.56,5.94 -7.86,9.27 -2.3,3.18 -4.49,7 -5.89,10.05l-9.18 -7.39c5.33,-3.23 10.24,-5.08 15.7,-6.5 5.35,-1.4 10.92,-1.97 16.41,-1.73 10.99,0.26 21.7,4.2 29.79,10.77 -5.2,-0.89 -10.06,-1.94 -15,-2.04 -4.86,-0.39 -9.67,0.02 -14.32,0.64 -4.66,0.7 -9.2,1.87 -13.57,3.42 -4.27,1.51 -8.82,3.64 -12.16,5.72l-0.31 0.19c-2.87,1.79 -6.64,0.9 -8.43,-1.96 -1.08,-1.74 -1.17,-3.85 -0.44,-5.62 2.19,-5.16 4.79,-9.01 8,-12.89 3.2,-3.76 6.91,-7.11 11.1,-9.72 4.11,-2.69 8.64,-4.72 13.34,-5.85 4.67,-1.19 9.5,-1.45 14.12,-0.88z"/>
   <path class="fil10" d="M774.03 425.57c0.6,5.92 -9.7,11.63 -23,12.75 -13.3,1.13 -24.57,-2.77 -25.17,-8.69 -0.6,-5.92 9.69,-11.63 23,-12.76 13.3,-1.12 24.57,2.77 25.17,8.69z"/>
   <path class="fil10" d="M591.81 498.85c24.69,-12.57 90.01,-42.17 168.73,-48.68 4.91,-0.4 9.26,3.33 9.71,8.08 6.42,66.41 -114.8,101.12 -179.22,54.46 -5.1,-3.69 -4.66,-11.09 0.78,-13.86z"/>
   <path class="fil11" d="M712.69 486.82c-4.26,2.04 -8.17,4.55 -11.59,7.35 -9.82,-2.6 -22.07,-1.27 -33.83,4.39 -15.71,7.6 -26.22,20.89 -27.96,33.53 15.37,2.63 31.32,2.66 46.62,0.44 12.03,-1.74 23.66,-4.85 34.21,-9.19 17.82,-7.27 32.67,-18.04 41.5,-31.45 -8.97,-11.94 -29.59,-14.44 -48.96,-5.06z"/>
   <path class="fil12" d="M1198.58 48.63c-102.26,-103.72 -330.91,-30.21 -243.71,113.92 87.2,144.13 282.12,249.01 320.23,304.35 25.96,-112.4 98.2,-184.05 145.22,-278.02 47.02,-93.97 -76.44,-232.38 -221.74,-140.26z"/>
   <polygon class="fil3" points="1580.66,2239.23 1641.8,2239.23 1893.56,3023.34 1873.18,3023.34 "/>
   <polygon class="fil3" points="1333.77,2239.23 1394.92,2239.23 1490.23,3023.34 1469.85,3023.34 "/>
   <polygon class="fil3" points="977.93,2239.23 916.78,2239.23 665.02,3023.34 685.4,3023.34 "/>
   <polygon class="fil3" points="1224.81,2239.23 1163.67,2239.23 1068.36,3023.34 1088.74,3023.34 "/>
   <path class="fil3" d="M1528.13 2413.03c-294.96,3.45 -714.1,-6.4 -899.4,-369.28 -125.6,-245.97 -259.86,-768.25 108.02,-917.57 367.89,-149.31 932.88,19.2 927.49,308.37 -5.39,289.18 297.77,360 397.01,556.83 123.28,244.52 -144.52,417.1 -533.12,421.64z"/>
   <path class="fil13" d="M1528.13 2413.03c-294.96,3.45 -714.1,-6.4 -899.4,-369.28 -125.6,-245.97 -259.86,-768.25 108.02,-917.57 367.89,-149.31 932.88,19.2 927.49,308.37 -5.39,289.18 297.77,360 397.01,556.83 123.28,244.52 -144.52,417.1 -533.12,421.64z"/>
   <path class="fil14" d="M1837.63 2137.68c-3.12,44.77 -216.09,66.42 -475.68,48.36 -259.59,-18.07 -423.58,-31.8 -471.09,-134.01 -95.81,-206.14 -108.22,-809.94 151.37,-791.88 259.59,18.07 798.51,832.76 795.4,877.53z"/>
   <path class="fil15" d="M1446.55 1242.58l2.05 13.9 2.39 14.89 5.23 30.07c3.81,20.06 7.75,40.14 12.25,60.04 8.87,39.86 19.58,79.1 32.37,117.08 3.38,9.38 6.4,19.03 10.19,28.14 3.58,9.23 6.89,18.7 10.97,27.57 3.87,8.84 8.11,18.85 10.7,25.17 1.48,3.33 2.7,6.25 3.31,7.93 0.34,1.78 1,1.76 -5.58,-1.61 -3.38,-1.57 -10.42,-4.52 -20.58,-4.05 -4.94,0.2 -10.04,1.56 -14.03,3.27 -2.07,0.9 -3.9,1.93 -5.33,2.81 -1.63,1.07 -2.83,1.98 -3.84,2.84 -4.15,3.67 -5.07,5.9 -5.42,6.92 -0.28,1.08 0.22,1.09 0.84,0.56 2.69,-2.36 7.25,-10.39 10.57,-18.58 7.37,-16.72 13.78,-37.26 20.6,-56.26l65.08 3.2c4.16,24.12 5.77,46.67 4.3,72.28 -1.28,12.89 -2.18,25.95 -8.67,43.2 -1.68,4.35 -3.79,9.11 -7.15,14.64 -3.42,5.45 -7.86,11.86 -16.32,18.8 -2.07,1.69 -4.38,3.38 -7.22,5.08 -2.57,1.61 -5.64,3.18 -8.98,4.56 -6.49,2.75 -14.3,4.54 -21.92,4.89 -15.59,0.63 -27.93,-4.17 -35.99,-8.4 -15.93,-8.88 -22.83,-16.91 -29.17,-23.57 -6.07,-6.82 -10.83,-12.93 -14.84,-18.9 -8.53,-12.23 -13.14,-22 -18.92,-32.49 -11.22,-20.78 -21,-42 -29.86,-63.46 -17.88,-42.85 -32.07,-86.6 -43.23,-130.83 -5.72,-22.1 -10.49,-44.38 -14.7,-66.79 -2.1,-11.22 -3.91,-22.5 -5.61,-33.86 -0.85,-5.7 -1.62,-11.4 -2.31,-17.19 -0.7,-5.95 -1.32,-11.25 -1.99,-18.27l130.84 -13.57z"/>
   <path class="fil16" d="M1277.94 1220.97c-39.71,73.87 59.77,269.54 59.77,269.54l178.96 -97.44c0,0 -13.48,-51.83 -57.77,-150.9 -48.23,-107.92 -132.85,-110.68 -180.96,-21.2z"/>
   <path class="fil15" d="M1510.25 1524.09l3.56 -87.74 99.82 33.58c0,0 -12.86,79.05 -55.97,79.01l-47.4 -24.85z"/>
   <path class="fil15" d="M1580.38 1374l33 17.67c13.14,7.03 19.25,22.54 14.44,36.65l-14.19 41.62 -99.82 -33.58 25.08 -49.32c7.74,-15.2 26.45,-21.09 41.49,-13.03z"/>
   <path class="fil17" d="M1371.93 1156.97c-102.06,-22.3 -205.56,-26.92 -303.68,-17.24 -65.72,6.48 -118.32,57.82 -126.98,123.29 -40.57,306.84 -14.81,470.08 -16.78,554.04 0,0 462.44,41.02 462.46,40.98 -3.75,-87.88 3.27,-317.21 46.85,-611.81 6.11,-41.32 -21.06,-80.35 -61.86,-89.26z"/>
   <polygon class="fil15" points="1751.36,2199.33 1838.17,2201.49 1874.95,2001.51 1788.14,1999.35 "/>
   <path class="fil18" d="M1850.44 2186.26l-90.22 -28.52c-3.38,-1.07 -6.81,0.43 -8.26,3.61l-32.3 70.81c-3.35,7.34 0.86,16.63 8.69,18.96 32.67,9.72 43.71,10.47 84.61,23.4 47.83,15.12 67.06,26.64 123.15,44.38 33.92,10.72 50.71,-21.63 37.27,-29.48 -42.53,-24.82 -90.3,-63.92 -104.44,-90.22 -3.7,-6.89 -11.37,-10.7 -18.5,-12.95z"/>
   <polygon class="fil19" points="1874.93,2001.56 1855.98,2104.64 1769.13,2102.48 1788.08,1999.4 "/>
   <path class="fil3" d="M1914.28 1481.52c-106.2,-53.02 -375.65,232.32 -717.31,359.7 -7.4,130.31 138.57,197.35 294.81,178.34 154.79,-18.84 211.97,-100.87 259.58,-213.83 -26.78,115.98 -1.35,236.51 -1.35,236.51l134.68 38c0,0 126.73,-550.23 29.58,-598.73z"/>
   <path class="fil20" d="M1914.28 1481.52c-106.2,-53.02 -375.65,232.32 -717.31,359.7 -7.4,130.31 138.57,197.35 294.81,178.34 154.79,-18.84 211.97,-100.87 259.58,-213.83 -26.78,115.98 -1.35,236.51 -1.35,236.51l134.68 38c0,0 126.73,-550.23 29.58,-598.73z"/>
   <polygon class="fil18" points="1900.27,2096.98 1726.33,2081 1722.58,2023.7 1916.83,2038.55 "/>
   <path class="fil3" d="M1839.88 2186.01c-0.68,-0.35 -1.12,-1.05 -1.12,-1.83 0,-0.87 0.55,-1.65 1.38,-1.94 4.19,-1.46 41.19,-14.08 50.81,-6.79 1.85,1.41 2.75,3.45 2.6,5.89 -0.26,4.1 -2.02,7.25 -5.21,9.36 -10.6,7.01 -34.75,0.13 -48.2,-4.59 -0.09,-0.03 -0.18,-0.07 -0.26,-0.11zm47.89 -7.72l0 0c-6.16,-3.16 -25.9,1.33 -40.44,5.89 18.53,5.84 32.78,7.02 38.73,3.09 2.09,-1.38 3.2,-3.41 3.38,-6.2 0.07,-1.08 -0.22,-1.78 -0.98,-2.35 -0.21,-0.16 -0.44,-0.3 -0.69,-0.43z"/>
   <path class="fil3" d="M1839.88 2186.01c-0.17,-0.09 -0.34,-0.2 -0.48,-0.35 -0.53,-0.5 -0.75,-1.25 -0.58,-1.96 0.23,-0.97 5.81,-23.78 18.01,-31.21 3.72,-2.27 7.68,-2.9 11.77,-1.89 5.52,1.36 6.73,4.43 6.78,6.76 0.2,9.94 -22.96,25.61 -33.99,28.8 -0.51,0.15 -1.05,0.09 -1.51,-0.15zm29.76 -30.71l0 0c-0.51,-0.26 -1.16,-0.5 -2.02,-0.72 -3.04,-0.75 -5.87,-0.28 -8.66,1.41 -8.01,4.88 -13.02,18.29 -15.08,24.89 11.48,-4.86 27.5,-17.49 27.38,-23.45 -0.01,-0.37 -0.03,-1.32 -1.63,-2.14z"/>
   <path class="fil15" d="M1304.24 1160.37c-51.04,-22.85 -41.91,-53.35 -25.15,-86.77l-107.36 -97.75c3.82,42.9 3.03,114.75 -26.56,152.26 -9.61,12.18 -8.69,29.41 2.8,39.83 27.55,25.01 64.29,49.25 121.34,59.21 52.48,9.15 64.15,-12.84 60.71,-35.05 -2.21,-14.32 -12.55,-25.81 -25.77,-31.73z"/>
   <path class="fil19" d="M1215.47 1015.71c-11.38,-4.11 -14.14,11.82 -14.15,33.56 -0.02,21.14 37.35,60.62 65.38,57.26 1.77,-10.57 6.62,-21.59 12.38,-32.94l-63.6 -57.88z"/>
   <path class="fil18" d="M1403.07 944.4c29.53,-28.58 67.3,-107.31 59.44,-146.19 -20.99,-9.67 -58.34,-20.56 -97.55,-10.34 -39.21,10.22 -75.11,39.29 -75.11,39.29l47.82 40.78 -0.95 27.58 26.66 29.52 -7.75 26.61c-3.08,10.57 7.98,19.69 17.77,14.67l29.67 -21.93z"/>
   <path class="fil15" d="M1192.82 842.66c-22.21,83.11 -39.46,130.66 -12.11,185.88 41.13,83.07 154.61,78.52 201.32,3.52 42.04,-67.51 71.31,-192.08 2.05,-250.48 -68.23,-57.54 -169.05,-22.03 -191.27,61.08z"/>
   <path class="fil18" d="M1154.54 892.67c-4.29,-51.33 -8.11,-89.98 -8.11,-135.3 22.39,-5.73 57.03,-21.12 93.76,-4 36.73,17.12 66.79,52.19 66.79,52.19l-54.39 31.49 -4.04 27.31 -31.55 24.22 2.82 27.58c1.12,10.95 -11.4,17.93 -20.13,11.22l-45.16 -34.7z"/>
   <path class="fil18" d="M1462.57 823.01c39.53,-20.67 93.09,-120.44 1,-116.22 -59.75,2.74 -133,10.64 -195.23,-24.33 0,0 18.09,30.99 64.45,35.21 100.91,9.19 104.08,-7.17 134.27,-0.38 53.04,11.93 -4.49,105.72 -4.49,105.72z"/>
   <path class="fil18" d="M1470.51 732.91c-66.56,-37.11 -139.69,-8.23 -196.34,-29.7 -56.65,-21.47 -117.48,12.14 -127.74,54.15l160.55 48.19c60.83,43.66 74.74,52.77 108.07,42.94 48.52,-14.32 122.02,-78.47 55.47,-115.58z"/>
   <path class="fil18" d="M1160.05 748.48c-28.49,5.23 -43.69,30.29 -19.07,62.68 -9.02,-34.54 18.43,-46.28 18.43,-46.28l0.64 -16.4z"/>
   <path class="fil15" d="M1127.4 909.88c3.74,22.82 17.75,41.73 33.48,52.51 23.65,16.21 44.92,-2.64 46.26,-29.71 1.21,-24.37 -9.64,-62.17 -37.18,-67.59 -27.14,-5.33 -46.84,18.69 -42.56,44.79z"/>
   <path class="fil18" d="M1304 900.13c-2.22,6.63 -0.49,13.16 3.87,14.57 4.35,1.41 9.68,-2.82 11.9,-9.45 2.22,-6.64 0.48,-13.16 -3.87,-14.57 -4.35,-1.41 -9.68,2.82 -11.9,9.45z"/>
   <path class="fil18" d="M1384.63 930.11c-2.22,6.63 -0.49,13.16 3.87,14.57 4.35,1.41 9.68,-2.82 11.9,-9.45 2.22,-6.63 0.49,-13.16 -3.87,-14.57 -4.36,-1.41 -9.69,2.82 -11.9,9.45z"/>
   <path class="fil21" d="M1359.58 925.65c0,0 2.35,43.19 12.86,67.06 -15.45,7.13 -33.81,-4.37 -33.81,-4.37l20.96 -62.69z"/>
   <path class="fil18" d="M1304.61 996.98c-24.21,-11.62 -30.11,-32.96 -30.37,-33.95 -0.29,-1.09 0.37,-2.21 1.47,-2.51 1.1,-0.29 2.23,0.35 2.52,1.44 0.07,0.25 7.01,25.05 36.17,34.51 1.08,0.35 1.66,1.51 1.3,2.58 -0.36,1.08 -1.53,1.66 -2.61,1.31 -3.05,-0.99 -5.87,-2.13 -8.48,-3.38z"/>
   <path class="fil18" d="M1293.52 860.12c-0.62,-0.3 -1.17,-0.75 -1.58,-1.35 -1.29,-1.86 -0.81,-4.41 1.06,-5.7 18.8,-12.95 36.49,-6.05 37.23,-5.75 2.11,0.85 3.11,3.24 2.24,5.33 -0.86,2.09 -3.27,3.1 -5.36,2.27 -0.58,-0.23 -14.43,-5.47 -29.44,4.87 -1.27,0.88 -2.86,0.95 -4.15,0.33z"/>
   <path class="fil18" d="M1427.35 909.36c-1.26,-0.44 -2.28,-1.47 -2.62,-2.86 -4.4,-17.52 -18.32,-22.57 -18.91,-22.77 -2.14,-0.75 -3.27,-3.07 -2.51,-5.21 0.75,-2.13 3.08,-3.27 5.23,-2.55 0.77,0.28 18.68,6.54 24.2,28.5 0.55,2.19 -0.79,4.42 -3,4.99 -0.82,0.21 -1.64,0.16 -2.38,-0.1z"/>
   <polygon class="fil15" points="2045.82,2899.57 2117.02,2849.86 2028.13,2666.99 1956.92,2716.7 "/>
   <path class="fil18" d="M2115.17 2826.3l-86.53 38.29c-3.24,1.43 -4.82,4.83 -3.81,8.18l22.62 74.48c2.34,7.72 11.65,11.9 19.06,8.47 30.92,-14.32 39.7,-21.06 78.94,-38.42 45.87,-20.3 67.92,-24.38 121.72,-48.18 32.53,-14.39 23.72,-49.77 8.45,-46.76 -48.31,9.52 -110,11.79 -138,1.43 -7.33,-2.72 -15.6,-0.5 -22.44,2.52z"/>
   <polygon class="fil19" points="2028.14,2667.05 2073.97,2761.3 2002.74,2811.03 1956.9,2716.78 "/>
   <path class="fil22" d="M1644.37 2186.48c-585.73,-18.3 -732.3,-13.29 -719.88,-369.43l297.61 26.39c0,0 518.84,32.04 583.16,204.69 96.78,259.79 273.34,660.14 273.34,660.14l-116.66 77.28c0,0 -240.08,-293.33 -317.57,-599.09z"/>
   <polygon class="fil18" points="2105.1,2728.88 1955.53,2819.1 1918.55,2775.16 2083.8,2672 "/>
   <path class="fil3" d="M2107.08 2833.09c-0.74,0.19 -1.53,-0.05 -2.05,-0.63 -0.58,-0.65 -0.68,-1.6 -0.25,-2.36 2.17,-3.87 21.58,-37.81 33.62,-38.7 2.32,-0.17 4.35,0.76 5.84,2.7 2.52,3.25 3.29,6.77 2.29,10.46 -3.31,12.27 -25.97,23.09 -39.18,28.44 -0.09,0.04 -0.18,0.06 -0.26,0.09zm30.82 -37.47l0 0c-6.71,1.71 -18.54,18.12 -26.43,31.17 17.76,-7.88 29.23,-16.42 31.09,-23.31 0.65,-2.42 0.14,-4.67 -1.57,-6.88 -0.66,-0.85 -1.35,-1.19 -2.29,-1.12 -0.26,0.02 -0.53,0.06 -0.8,0.13z"/>
   <path class="fil3" d="M2107.08 2833.09c-0.19,0.05 -0.39,0.07 -0.59,0.07 -0.73,-0.03 -1.39,-0.44 -1.74,-1.09 -0.47,-0.88 -11.38,-21.68 -7.14,-35.32 1.29,-4.16 3.84,-7.26 7.58,-9.21 5.04,-2.63 7.98,-1.13 9.56,0.58 6.73,7.32 -0.28,34.4 -6.44,44.08 -0.29,0.45 -0.73,0.76 -1.23,0.88zm2.01 -42.71l0 0c-0.55,0.14 -1.2,0.39 -1.99,0.8 -2.77,1.45 -4.59,3.66 -5.56,6.79 -2.78,8.96 2.33,22.33 5.16,28.64 5.39,-11.24 9.06,-31.31 5.02,-35.7 -0.25,-0.27 -0.89,-0.97 -2.63,-0.52zm-2.94 -1.02l0 0 0.05 -0.01 -0.05 0.01z"/>
   <path class="fil3" d="M1606.67 1411.66l-93.5 -1.49c-6.84,-0.09 -14.92,3.15 -17.96,7.22l-116.26 155.58c-2.8,3.75 -2.18,7.62 0.82,10.63 3,3 6.71,2.27 12.39,2.35l92.04 1.4c6.84,0.1 14.92,-3.15 17.96,-7.22l115.08 -154.01c3.85,-5 4.45,-14.47 -10.57,-14.47z"/>
   <path class="fil15" d="M1342.41 1531.83l64.43 -59.66 47.03 94.23c0,0 -64.9,46.94 -95.41,16.49l-16.06 -51.06z"/>
   <path class="fil15" d="M1498.01 1474.96l10.92 35.8c4.35,14.26 -2.27,29.56 -15.63,36.16l-39.42 19.47 -47.03 -94.23 52.58 -17.24c16.21,-5.32 33.62,3.72 38.59,20.04z"/>
   <path class="fil15" d="M1118.6 1243.53l1.49 18.58 1.8 19.54c1.32,13.07 2.7,26.19 4.25,39.29 3.24,26.17 6.73,52.3 11.31,78.06 8.79,51.53 20.46,102.26 37.41,148.68 4.06,11.61 8.96,22.94 13.65,33.53 2.21,5.57 3.26,6.75 2.93,7.69 -0.24,0.85 1.74,2.93 8.39,3.35 6.44,0.47 15.95,-0.62 26.07,-3.44 10.15,-2.85 21.16,-6.81 32.24,-11.65 11.06,-4.91 22.34,-10.55 33.63,-16.61 11.21,-6.18 22.56,-12.68 33.72,-19.62 11.07,-6.77 22.7,-14.32 32.95,-21.05l45.36 46.78c-9.87,12.37 -19.22,22.99 -29.6,33.81 -10.31,10.61 -20.99,21.01 -32.43,30.83 -11.38,9.93 -23.35,19.47 -36.37,28.33 -12.99,8.92 -26.84,17.44 -42.55,24.64 -15.72,7.15 -33.2,13.68 -54.44,16.43 -10.62,1.27 -22.27,1.53 -34.64,-0.19 -12.34,-1.69 -25.4,-5.53 -37.55,-11.74 -12.17,-6.16 -23.09,-14.6 -31.81,-23.82 -8.77,-9.22 -15.63,-19.04 -21.03,-28.61 -7.82,-14.16 -14.95,-27.86 -21.26,-41.97 -25.34,-56.26 -41.46,-113.56 -53.51,-170.92 -5.77,-28.74 -10.71,-57.47 -14.21,-86.37 -1.83,-14.44 -3.4,-28.9 -4.59,-43.45 -0.61,-7.27 -1.21,-14.57 -1.61,-21.92 -0.42,-7.54 -0.76,-14.34 -1.04,-22.96l131.44 -5.22z"/>
   <path class="fil23" d="M975.05 1202.25c-47.39,69.2 30.58,274.39 30.58,274.39l188.36 -77.74c0,0 -7.86,-52.97 -41.29,-156.22 -36.41,-112.46 -120.24,-124.26 -177.65,-40.44z"/>
  </g>
 </g>
</svg>
